<svg width="228" height="200" viewBox="0 0 228 200" fill="none" xmlns="http://www.w3.org/2000/svg">
<path fill-rule="evenodd" clip-rule="evenodd" d="M194 167.996V114C194 112.343 195.343 111 197 111C198.657 111 200 112.343 200 114V167.996C200 174.624 194.621 180 187.997 180H124.326L108.486 195.84C103.799 200.527 96.2023 200.528 91.5139 195.84L75.6741 180H12.0026C5.3738 180 0 174.624 0 167.996V12.004C0 5.37585 5.37854 0 12.0026 0H187.997C194.626 0 200 5.37609 200 12.004V28C200 29.6569 198.657 31 197 31C195.343 31 194 29.6569 194 28V12.004C194 8.68984 191.313 6 187.997 6H12.0026C8.69375 6 6 8.68806 6 12.004V167.996C6 171.31 8.68746 174 12.0026 174H78.1594L95.7565 191.597C98.1022 193.943 101.9 193.941 104.243 191.597L121.841 174H187.997C191.306 174 194 171.312 194 167.996ZM46.8076 86.9497C45.636 88.1213 45.636 90.0208 46.8076 91.1924C47.9792 92.364 49.8787 92.364 51.0503 91.1924L56 86.2426L60.9497 91.1924C62.1213 92.364 64.0208 92.364 65.1924 91.1924C66.364 90.0208 66.364 88.1213 65.1924 86.9498L60.2426 82L65.1924 77.0503C66.364 75.8787 66.364 73.9792 65.1924 72.8076C64.0208 71.636 62.1213 71.636 60.9497 72.8076L56 77.7574L51.0503 72.8076C49.8787 71.636 47.9792 71.636 46.8076 72.8076C45.636 73.9792 45.636 75.8787 46.8076 77.0503L51.7574 82L46.8076 86.9497ZM134.808 86.9497C133.636 88.1213 133.636 90.0208 134.808 91.1924C135.979 92.364 137.879 92.364 139.05 91.1924L144 86.2427L148.95 91.1924C150.121 92.364 152.021 92.364 153.192 91.1924C154.364 90.0208 154.364 88.1213 153.192 86.9498L148.243 82L153.192 77.0503C154.364 75.8787 154.364 73.9792 153.192 72.8076C152.021 71.636 150.121 71.636 148.95 72.8076L144 77.7574L139.05 72.8076C137.879 71.636 135.979 71.636 134.808 72.8076C133.636 73.9792 133.636 75.8787 134.808 77.0503L139.757 82L134.808 86.9497ZM74 123C72.3431 123 71 124.343 71 126C71 127.657 72.3431 129 74 129H126C127.657 129 129 127.657 129 126C129 124.343 127.657 123 126 123H74Z" fill="white"/>
<path fill-rule="evenodd" clip-rule="evenodd" d="M206 104C215.941 104 228 99.8706 228 81.6452C228 63.4198 208 38 206 38C204 38 184 63.4198 184 81.6452C184 99.8706 196.059 104 206 104Z" fill="#4A90E2"/>
</svg>
