<svg width="37" height="37" viewBox="0 0 37 37" fill="none" xmlns="http://www.w3.org/2000/svg">
<path d="M18 17L4 10L18.5 2.5L32.5 9L18 17Z" fill="#FFC517" stroke="black"/>
<path d="M18.5 34.2026V17.3046L33 9.82073V27.1865L18.5 34.2026Z" fill="#EE7407" stroke="black"/>
<path d="M18 34.3651L3.5 26.8813V10.7829L18 17.5052V34.3651Z" fill="#EE7407" stroke="black"/>
<path d="M19.8721 2.23544L32.2055 8.40211C32.7192 8.65738 33.1515 9.05088 33.4538 9.53839C33.7561 10.0259 33.9164 10.5881 33.9167 11.1617V25.8538C33.9164 26.4274 33.7561 26.9896 33.4538 27.4771C33.1515 27.9646 32.7192 28.3581 32.2055 28.6134L19.8721 34.78C19.4438 34.9944 18.9714 35.106 18.4923 35.106C18.0133 35.106 17.5409 34.9944 17.1126 34.78L4.77922 28.6134C4.26605 28.3548 3.83534 27.958 3.53569 27.4676C3.23605 26.9773 3.07939 26.413 3.08339 25.8384V11.1617C3.08369 10.5881 3.24401 10.0259 3.54632 9.53839C3.84863 9.05088 4.28093 8.65738 4.79464 8.40211L17.128 2.23544C17.5543 2.02358 18.024 1.91333 18.5001 1.91333C18.9762 1.91333 19.4458 2.02358 19.8721 2.23544V2.23544Z" stroke="black" stroke-width="2" stroke-linecap="round" stroke-linejoin="round"/>
<path d="M3.57672 9.4967L18.5001 16.9584L33.4234 9.4967" stroke="black" stroke-width="2" stroke-linecap="round" stroke-linejoin="round"/>
<path d="M18.5 35.0884V16.9584" stroke="black" stroke-width="2" stroke-linecap="round" stroke-linejoin="round"/>
<path d="M10.7917 5.39587L26.2084 13.1042" stroke="black" stroke-width="2" stroke-linecap="round" stroke-linejoin="round"/>
</svg>
